<?xml version="1.0" encoding="UTF-8"?>
<svg width="112px" height="33px" viewBox="0 0 112 33" version="1.1" xmlns="http://www.w3.org/2000/svg" xmlns:xlink="http://www.w3.org/1999/xlink">
    <!-- Generator: Sketch 58 (84663) - https://sketch.com -->
    <title>balmain paris</title>
    <desc>Created with Sketch.</desc>
    <defs>
        <polygon id="path-1" points="0.0459986441 0.043081239 17.0386495 0.043081239 17.0386495 16.113997 0.0459986441 16.113997"></polygon>
        <polygon id="path-3" points="0.0579683245 0.0372399632 14.1948097 0.0372399632 14.1948097 16.1117116 0.0579683245 16.1117116"></polygon>
        <polygon id="path-5" points="0 0.0356197035 13.2435576 0.0356197035 13.2435576 16.1001602 0 16.1001602"></polygon>
        <polygon id="path-7" points="0.142372881 32.2711864 110.244068 32.2711864 110.244068 0 0.142372881 0"></polygon>
    </defs>
    <g id="desktop" stroke="none" stroke-width="1" fill="none" fill-rule="evenodd">
        <g id="home" transform="translate(-899.000000, -6822.000000)">
            <g id="clients" transform="translate(0.000000, 6508.000000)">
                <g id="balmain-paris" transform="translate(899.000000, 314.000000)">
                    <g id="Group-3" transform="translate(48.549153, 0.000000)">
                        <mask id="mask-2" fill="white">
                            <use xlink:href="#path-1"></use>
                        </mask>
                        <g id="Clip-2"></g>
                        <path d="M3.32163254,16.113997 L0.0459986441,16.113997 L0.0459986441,0.0671892461 C0.148344407,0.0609098773 0.24808678,0.0494639392 0.347829153,0.0493844535 C1.57142237,0.0481126826 2.79509695,0.0543920514 4.01860881,0.0430619668 C4.23753763,0.0411179427 4.35346983,0.107567972 4.46012746,0.293882408 C5.75336136,2.55334237 7.05570712,4.80787423 8.35601898,7.06351888 C8.4069478,7.15182747 8.46096814,7.23846686 8.53288678,7.35809281 C8.89361898,6.71561005 9.24174102,6.09601917 9.58961898,5.47626932 C10.5678427,3.73378422 11.5439512,1.99010684 12.5301478,0.251913968 C12.5818902,0.160584921 12.7182427,0.0582073641 12.8161139,0.0573330216 C14.1723986,0.044774284 15.5288461,0.0490665108 16.8852936,0.0500998247 C16.9306902,0.0500998247 16.9760868,0.0599560491 17.0386495,0.0671892461 L17.0386495,16.066385 L13.6610766,16.066385 L13.6610766,5.23018165 C13.6395173,5.22247154 13.617958,5.21468194 13.5963173,5.20689234 C13.5492122,5.28661648 13.5000732,5.36530731 13.4553275,5.44630321 C12.2267715,7.66586137 10.9958563,9.88422724 9.77551729,12.1080776 C9.67154441,12.2975715 9.56301559,12.3706188 9.34107661,12.3631472 C8.81063593,12.3452629 8.27864949,12.3470116 7.74796475,12.3629087 C7.55580203,12.3686317 7.46533424,12.2966177 7.37657492,12.1438462 C6.08732746,9.92460596 4.79222237,7.70854518 3.49809356,5.491928 C3.45912407,5.42516002 3.41657492,5.36037919 3.32163254,5.30942887 L3.32163254,16.113997 Z" id="Fill-1" fill="#7F7F7F" mask="url(#mask-2)"></path>
                    </g>
                    <g id="Group-6" transform="translate(96.955932, 0.000000)">
                        <mask id="mask-4" fill="white">
                            <use xlink:href="#path-3"></use>
                        </mask>
                        <g id="Clip-5"></g>
                        <path d="M11.2230364,10.3357867 L11.2230364,0.0554068977 L14.1948174,0.0554068977 L14.1948174,16.0983609 L12.9133059,16.0983609 C12.6411637,16.0983609 12.366065,16.0721908 12.0977349,16.1050239 C11.7680211,16.1454833 11.574534,15.9995405 11.3784018,15.7437793 C8.6518444,12.187045 5.9160289,8.63793696 3.18215838,5.08722341 C3.15080522,5.0464429 3.1154065,5.00911429 3.04453126,4.92675052 L3.04453126,16.0782115 L0.0579683245,16.0782115 L0.0579683245,0.0579757484 C0.135456516,0.0521155578 0.213489303,0.0412782191 0.291522089,0.0411979425 C1.18030231,0.0399937937 2.06916032,0.0437667932 2.95794054,0.0372399632 C3.1158733,0.0360602412 3.22105807,0.0791687663 3.32390886,0.212668724 C5.85542317,3.49959342 8.39191664,6.78242402 10.9277877,10.0658968 C11.0044979,10.165199 11.0830753,10.2629758 11.1607191,10.3614752 C11.1814915,10.3528856 11.2021862,10.344296 11.2230364,10.3357867" id="Fill-4" fill="#7F7F7F" mask="url(#mask-4)"></path>
                    </g>
                    <g id="Group-9" transform="translate(0.142373, 0.000000)">
                        <mask id="mask-6" fill="white">
                            <use xlink:href="#path-5"></use>
                        </mask>
                        <g id="Clip-8"></g>
                        <path d="M3.2073739,2.96324149 L3.2073739,6.38069591 C4.55396034,6.32811475 5.89523153,6.36985857 7.20652136,6.19774558 C8.48351119,6.03012807 8.75500441,4.98147507 8.46947559,4.04047296 C8.25204847,3.32368335 7.62177559,3.00771471 6.91360102,2.977611 C5.68968068,2.92567205 4.4616078,2.96324149 3.2073739,2.96324149 L3.2073739,2.96324149 Z M3.20355356,13.1840561 C3.27838237,13.1890332 3.3346078,13.1961778 3.39075017,13.1961778 C4.84222983,13.1966595 6.29370949,13.2032422 7.74502305,13.1905585 C8.03080102,13.1880699 8.32513322,13.1410278 8.59961627,13.0626779 C9.36742136,12.8436833 9.87635695,12.3663588 9.99487051,11.5797285 C10.1215231,10.7383497 9.94761458,9.98888749 9.14210441,9.50489997 C8.65260271,9.21076657 8.09840441,9.13289829 7.5291739,9.13369493 C6.18416542,9.13554742 4.83915695,9.13394188 3.49414847,9.13482493 C3.40088237,9.1349052 3.30753322,9.1438159 3.20355356,9.14911416 L3.20355356,13.1840561 Z M-4.98305085e-05,16.0984171 L-4.98305085e-05,0.0578713888 C0.0892298305,0.0513689856 0.164141695,0.0410935829 0.239053559,0.0411738595 C2.44579763,0.0422977317 4.65295695,0.0207033308 6.85911966,0.0557841977 C8.1073739,0.0756927903 9.29450271,0.366936234 10.2723434,1.18254632 C11.2009349,1.95713507 11.555479,2.97375772 11.5390349,4.1315066 C11.5223417,5.3039461 11.0531875,6.28540761 10.1489298,7.10198101 C10.3764061,7.19341604 10.5819569,7.26719022 10.7797841,7.35685916 C12.6539095,8.20666707 13.3624163,9.75191102 13.2275417,11.5725037 C13.1591908,12.4959252 12.8926807,13.3540016 12.3259417,14.1065143 C11.5084722,15.1920945 10.3770705,15.7895931 9.02251119,15.9890804 C8.48998915,16.0675107 7.94476034,16.0912725 7.40501288,16.0936808 C5.06281288,16.1045984 2.72044678,16.0984171 0.378163729,16.0984171 L-4.98305085e-05,16.0984171 Z" id="Fill-7" fill="#7F7F7F" mask="url(#mask-6)"></path>
                    </g>
                    <path d="M76.084678,4.88270766 C75.3794453,6.73753679 74.7036923,8.51519562 74.0195277,10.3146266 L78.152108,10.3146266 C77.4667643,8.51406669 76.7917188,6.74043975 76.084678,4.88270766 M83.6677966,16.1348163 C82.5876609,16.1348163 81.5436083,16.1394933 80.4997916,16.1253817 C80.4219652,16.1243334 80.3097852,16.0038606 80.2744882,15.9137883 C79.9440799,15.0711239 79.6222403,14.2247503 79.3099915,13.374748 C79.2500888,13.2116178 79.1825606,13.1400115 79.0010444,13.1407373 C77.0310938,13.1477527 75.0611433,13.1471883 73.0912713,13.1413017 C72.9267354,13.1407373 72.8493021,13.1971837 72.7924652,13.351363 C72.4757355,14.2094291 72.1538959,15.0657212 71.8214437,15.9174976 C71.7865397,16.0070055 71.6715297,16.1244946 71.5923669,16.1255429 C70.5671813,16.1395739 69.5418385,16.1348163 68.4813559,16.1348163 C68.5139801,16.0168433 68.5321396,15.920078 68.5669649,15.8300863 C70.5749639,10.6423384 72.5858716,5.45571939 74.5877388,0.265552347 C74.6652507,0.0646031164 74.7536898,-0.00272939057 74.9590256,8.4131158e-05 C75.7559991,0.0115434882 76.5532871,0.00928563164 77.3504178,0.00122185834 C77.5191202,-0.000471534049 77.6085812,0.0431534795 77.6740654,0.216927794 C79.63529,5.42273856 81.6024891,10.6262108 83.5682732,15.8302476 C83.6007402,15.9163687 83.6258175,16.0054734 83.6677966,16.1348163" id="Fill-10" fill="#7F7F7F"></path>
                    <path d="M23.8899202,4.88401299 C23.1851067,6.73671558 22.5081779,8.5164676 21.8266147,10.3079884 L25.953697,10.3079884 C25.2669496,8.50300601 24.5913561,6.72736501 23.8899202,4.88401299 M31.4644068,16.1308947 L29.3837421,16.1308947 C29.0449635,16.1308947 28.7058707,16.1210605 28.3675634,16.1350863 C28.2005698,16.1420186 28.1264202,16.0781768 28.0692371,15.9232475 C27.7588144,15.0827442 27.4315824,14.2488506 27.126501,13.4064127 C27.0554933,13.2102925 26.9712111,13.135488 26.7591308,13.1365359 C24.8180464,13.1458864 22.8768834,13.1456446 20.935799,13.1366165 C20.7335372,13.1357298 20.6493335,13.2096476 20.5824104,13.3927898 C20.2749725,14.2341799 19.9537101,15.0702499 19.6403026,15.9093829 C19.5924667,16.0377114 19.5520144,16.1365373 19.3799152,16.1350057 C18.3819596,16.1257357 17.3839255,16.1296049 16.3858914,16.1279928 C16.3609131,16.1279928 16.3360133,16.1158209 16.2779661,16.1006665 C16.4609835,15.6249966 16.6400735,15.1575487 16.820656,14.6906651 C18.6780865,9.88689036 20.537088,5.08384112 22.3890202,0.277809369 C22.4682754,0.0720968291 22.5618263,-0.00440050633 22.7840393,0.000194170294 C23.5803615,0.0164770594 24.3772336,0.0109150824 25.1737128,0.0029348546 C25.3332443,0.00132268736 25.4114784,0.0496877045 25.4707038,0.20687401 C27.4381804,5.42860308 29.4106056,10.6483169 31.3816955,15.8685951 C31.410287,15.9442863 31.4307096,16.0232825 31.4644068,16.1308947" id="Fill-12" fill="#7F7F7F"></path>
                    <polygon id="Fill-14" fill="#7F7F7F" points="35.2610169 0 38.4843109 0 38.4843109 13.166686 44.7525424 13.166686 44.7525424 16.1355932 35.2610169 16.1355932"></polygon>
                    <mask id="mask-8" fill="white">
                        <use xlink:href="#path-7"></use>
                    </mask>
                    <g id="Clip-17"></g>
                    <polygon id="Fill-16" fill="#7F7F7F" mask="url(#mask-8)" points="88.4135593 16.1355932 91.2610169 16.1355932 91.2610169 0.949152542 88.4135593 0.949152542"></polygon>
                    <path d="M56.7418322,27.5497047 C56.7806556,27.5631924 56.7970957,27.5738807 56.8135358,27.5739655 C57.2982489,27.5760862 57.7830391,27.5799034 58.2678293,27.5776131 C58.8129771,27.5748986 59.1684076,27.2331273 59.2169561,26.6723305 C59.2810185,25.9327167 59.0045468,25.4046634 58.4381735,25.3451143 C57.8809851,25.2865831 57.314689,25.3323901 56.7418322,25.3323901 L56.7418322,27.5497047 Z M55.1932203,23.7297379 C55.412499,23.7297379 55.6088541,23.7274476 55.8052092,23.7300773 C56.8210226,23.7437345 57.8400006,23.7089551 58.8518005,23.7864029 C59.9797617,23.8727577 60.7485104,24.7964479 60.8312513,26.0487611 C60.8857429,26.8730331 60.839973,27.688992 60.2967548,28.3327504 C60.0527002,28.6218437 59.7275257,28.8280601 59.4240398,29.0846643 C59.8899972,30.098272 60.3783379,31.1606557 60.8881356,32.26961 C60.3003824,32.26961 59.7559293,32.2769051 59.2120936,32.2601092 C59.1464875,32.2581582 59.0638239,32.1382116 59.023534,32.0531293 C58.6085178,31.1787241 58.1967432,30.3023678 57.7940763,29.4210915 C57.7190539,29.25678 57.6314505,29.186797 57.4632674,29.197655 C57.2315622,29.2125847 56.9984677,29.2013874 56.7374328,29.2013874 L56.7374328,32.2530685 L55.1932203,32.2530685 L55.1932203,23.7297379 Z" id="Fill-18" fill="#7F7F7F" mask="url(#mask-8)"></path>
                    <path d="M69.4305085,29.2889019 C70.0398883,29.2889019 70.6010591,29.2822774 71.1617224,29.2974309 C71.2314988,29.2992526 71.3374742,29.405161 71.3602255,29.481839 C71.6898235,30.5902749 72.6577268,31.0418967 73.7530036,30.5824911 C74.0602731,30.4535628 74.2783981,30.252842 74.2838111,29.8893254 C74.2895623,29.5012983 74.0699149,29.26671 73.7319438,29.1523554 C73.1197729,28.9450102 72.494577,28.7750931 71.8771623,28.5822388 C71.5501862,28.4799739 71.2235485,28.3741483 70.9049456,28.2499399 C69.1963138,27.5841828 69.2133984,25.244179 70.5405863,24.350044 C71.3168373,23.8270438 72.1813025,23.6789873 73.0971907,23.7426649 C73.8172824,23.7927623 74.4914485,23.983712 75.0582014,24.4468438 C75.7741487,25.0319482 76.0584132,25.8005499 76.0580749,26.7115772 L74.1681092,26.7115772 C74.1584674,26.6413581 74.1489102,26.5685719 74.1385917,26.4959514 C74.0252581,25.6963804 73.5563612,25.2758107 72.7242891,25.2890596 C72.3782832,25.2945248 72.0100333,25.3382462 71.6939678,25.4650216 C71.169419,25.6755134 71.0732545,26.2854596 71.5050219,26.6443391 C71.7425152,26.8417477 72.0585807,26.970676 72.3603528,27.0673101 C73.0408622,27.2854201 73.7442921,27.4365404 74.4200652,27.6665743 C75.175933,27.9238514 75.7794771,28.3738999 75.9882986,29.1843184 C76.3224637,30.4816339 75.6665663,31.646212 74.3563784,32.0475708 C73.3941418,32.3424416 72.4136365,32.3383013 71.443365,32.0787057 C70.208451,31.7483113 69.6716385,30.8510297 69.4794788,29.6908403 C69.4593494,29.5692817 69.4494538,29.4460669 69.4305085,29.2889019" id="Fill-19" fill="#7F7F7F" mask="url(#mask-8)"></path>
                    <path d="M47.7104402,26.5490523 C47.3609489,27.5249427 47.0426998,28.4135666 46.7147381,29.329525 L48.7035523,29.329525 C48.375105,28.4099164 48.0567749,27.5187458 47.7104402,26.5490523 M51.3966102,32.2695053 C50.8573187,32.2695053 50.3398806,32.2769755 49.8232519,32.2604221 C49.7551828,32.2582998 49.6607279,32.1459061 49.6299714,32.0633934 C49.5101018,31.7422562 49.4230932,31.4073669 49.2964249,31.0896252 C49.2612168,31.0012552 49.1322822,30.8985388 49.0450307,30.8972655 C48.1299431,30.8832587 47.2144507,30.8833436 46.2992821,30.8970108 C46.2098454,30.8982842 46.080668,30.9958223 46.0408463,31.0839376 C45.8961288,31.4041411 45.7868622,31.7418317 45.6517763,32.0672983 C45.619401,32.1454816 45.540729,32.2577905 45.4809966,32.2594883 C44.9367679,32.2742591 44.3921345,32.268147 43.8033898,32.268147 C44.0457189,31.6089796 44.2708081,30.9943791 44.4974352,30.3804578 C45.2815648,28.2562663 46.0694175,26.1336028 46.8454533,24.0062703 C46.9229921,23.7937069 47.0228699,23.7179854 47.23509,23.7300397 C47.5550388,23.7481212 47.877173,23.7232485 48.1969599,23.7425185 C48.2838876,23.7477816 48.4147647,23.8268138 48.4427694,23.9046575 C49.4281114,26.6448926 50.4036599,29.3889477 51.3796941,32.1328331 C51.3892448,32.1594884 51.3873023,32.1906429 51.3966102,32.2695053" id="Fill-20" fill="#7F7F7F" mask="url(#mask-8)"></path>
                    <path d="M36.8491797,25.3351471 L36.8491797,27.609121 C37.3605336,27.609121 37.8574864,27.611771 38.3543613,27.6083517 C38.8966969,27.6045051 39.2117295,27.3082268 39.3080219,26.7197735 C39.4282122,25.9849761 39.0499707,25.3621592 38.4469951,25.3392502 C37.9224857,25.3193331 37.3968086,25.3351471 36.8491797,25.3351471 M36.8139945,29.2125795 L36.8139945,32.2711864 L35.2610169,32.2711864 L35.2610169,23.7308338 L35.5537863,23.7308338 C36.5153869,23.7308338 37.4769874,23.7256195 38.438588,23.7319451 C40.3642801,23.7446818 41.0798174,25.1463189 40.9386872,26.8844959 C40.8025389,28.5614684 39.805831,29.1574441 38.5202458,29.2088184 C37.9612517,29.231129 37.4007787,29.2125795 36.8139945,29.2125795" id="Fill-21" fill="#7F7F7F" mask="url(#mask-8)"></path>
                    <polygon id="Fill-22" fill="#7F7F7F" mask="url(#mask-8)" points="64.6847458 32.2711864 66.5830508 32.2711864 66.5830508 23.7288136 64.6847458 23.7288136"></polygon>
                </g>
            </g>
        </g>
    </g>
</svg>