<?xml version="1.0" encoding="UTF-8"?>
<svg width="54px" height="53px" viewBox="0 0 54 53" version="1.1" xmlns="http://www.w3.org/2000/svg" xmlns:xlink="http://www.w3.org/1999/xlink">
    <!-- Generator: Sketch 52.5 (67469) - http://www.bohemiancoding.com/sketch -->
    <title>beats-electronics</title>
    <desc>Created with Sketch.</desc>
    <g id="desktop" stroke="none" stroke-width="1" fill="none" fill-rule="evenodd">
        <g id="home" transform="translate(-798.000000, -6822.000000)" fill-rule="nonzero">
            <g id="clients" transform="translate(0.000000, 6508.000000)">
                <g id="beats-electronics" transform="translate(798.000000, 314.000000)">
                    <path d="M53.5970149,26.5000331 C53.5970149,41.1355416 41.7325674,53 27.0970149,53 C12.4614624,53 0.597014925,41.1355416 0.597014925,26.5000331 C0.597014925,11.8644584 12.4614624,0 27.0970149,0 C41.7325674,0 53.5970149,11.8644584 53.5970149,26.5000331 Z" id="Path" fill="#FFFFFF"></path>
                    <path d="M34.5970149,26 C34.5970149,21.5816322 31.0156442,18 26.5973102,18 C22.1787137,18 18.5970149,21.5816322 18.5970149,26 C18.5970149,30.4182365 22.1787137,34 26.5973102,34 C31.0156442,34 34.5970149,30.4182365 34.5970149,26" id="Path" fill="#7F7F7F"></path>
                    <path d="M27.0982074,0 C24.5734199,0 22.1344924,0.360517629 19.8212412,1.02000917 L19.8212412,15.3441258 C21.9134162,13.9769147 24.4115712,13.1790989 27.0976774,13.1790989 C34.4542762,13.1790989 40.4186974,19.1430091 40.4186974,26.4999006 C40.4186974,33.8567922 34.4542762,39.8207024 27.0976774,39.8207024 C19.7404824,39.8207024 13.7761274,33.8567922 13.7761274,26.4999006 C13.7761274,26.2632654 13.7828849,26.0282201 13.7948099,25.7944997 L13.7761274,25.8092066 L13.7761274,3.59550419 C5.89661743,8.1879635 0.597014925,16.7224664 0.597014925,26.4999006 C0.597014925,41.1353132 12.4621912,53 27.0982074,53 C41.7340249,53 53.5970149,41.1353132 53.5970149,26.4999006 C53.5970149,11.8646868 41.7340249,0 27.0982074,0" id="Path" fill="#7F7F7F"></path>
                </g>
            </g>
        </g>
    </g>
</svg>