<?xml version="1.0" encoding="UTF-8"?>
<svg width="91px" height="30px" viewBox="0 0 91 30" version="1.1" xmlns="http://www.w3.org/2000/svg" xmlns:xlink="http://www.w3.org/1999/xlink">
    <!-- Generator: Sketch 58 (84663) - https://sketch.com -->
    <title>fifa</title>
    <desc>Created with Sketch.</desc>
    <g id="desktop" stroke="none" stroke-width="1" fill="none" fill-rule="evenodd">
        <g id="home" transform="translate(-374.000000, -6814.000000)" fill="#7F7F7F" fill-rule="nonzero">
            <g id="clients" transform="translate(0.000000, 6508.000000)">
                <g id="fifa" transform="translate(374.000000, 306.000000)">
                    <path d="M0,0 L0,29.9342105 L9.34024784,29.9342105 L9.34024784,19.12532 L15.9102909,19.12532 L18.4108297,12.511661 L9.34024784,12.511661 L9.34024784,6.46559205 L20.3720366,6.46559205 L22.75,0 L0,0 M26.3421053,0 L26.3421053,29.9342105 L35.9210526,29.9342105 L35.9210526,0 L26.3421053,0 M71.8421053,20.2135628 L75.2885846,8.38157895 L79.0263158,20.3552632 L71.8421053,20.3552632 L71.8421053,20.2135628 L71.8421053,20.2135628 Z M80.351669,0 L70.6646456,0 L59.8684211,29.9342105 L68.8406259,29.9342105 L69.974476,25.8623682 L80.4749135,25.8623682 L81.7320082,29.9342105 L91,29.9342105 L80.351669,0 M41.9078947,0 L41.9078947,29.9342105 L51.2481426,29.9342105 L51.2481426,19.12532 L57.8181857,19.12532 L60.3187245,12.511661 L51.2481426,12.511661 L51.2481426,6.46559205 L62.2799314,6.46559205 L64.6578947,0 L41.9078947,0" id="logo"></path>
                </g>
            </g>
        </g>
    </g>
</svg>