<?xml version="1.0" encoding="UTF-8"?>
<svg width="80px" height="29px" viewBox="0 0 80 29" version="1.1" xmlns="http://www.w3.org/2000/svg" xmlns:xlink="http://www.w3.org/1999/xlink">
    <!-- Generator: Sketch 58 (84663) - https://sketch.com -->
    <title>nike</title>
    <desc>Created with Sketch.</desc>
    <g id="desktop" stroke="none" stroke-width="1" fill="none" fill-rule="evenodd">
        <g id="home" transform="translate(-121.000000, -6814.000000)" fill="#7F7F7F" fill-rule="nonzero">
            <g id="clients" transform="translate(0.000000, 6508.000000)">
                <g id="nike" transform="translate(121.000000, 306.000000)">
                    <path d="M10.2475864,1.2770983 C5.04180822,7.39224166 0.0504568455,14.9755675 0,20.6438269 C-0.0190869989,22.7765385 0.66159972,24.6383794 2.29429952,26.0485934 C4.64403851,28.0795967 7.23296617,28.7957704 9.80924949,28.8 C13.5741003,28.8052562 17.3126088,27.2859561 20.2397725,26.1144666 C25.1694827,24.1424857 79.6628801,0.471863974 79.6628801,0.471863974 C80.1886737,0.208371068 80.0901532,-0.119941093 79.432121,0.0439514944 C79.1665899,0.110351707 20.1075338,16.1196537 20.1075338,16.1196537 C18.9888482,16.4361237 17.8329025,16.6016567 16.670382,16.6118585 C12.1315924,16.6387347 8.09278097,14.1186886 8.1254455,8.80825254 C8.13808984,6.73034748 8.77399454,4.22452995 10.2475864,1.2770983 L10.2475864,1.2770983 Z" id="Path"></path>
                </g>
            </g>
        </g>
    </g>
</svg>