<?xml version="1.0" encoding="UTF-8"?>
<svg width="128px" height="29px" viewBox="0 0 128 29" version="1.1" xmlns="http://www.w3.org/2000/svg" xmlns:xlink="http://www.w3.org/1999/xlink">
    <!-- Generator: Sketch 58 (84663) - https://sketch.com -->
    <title>verizon</title>
    <desc>Created with Sketch.</desc>
    <g id="desktop" stroke="none" stroke-width="1" fill="none" fill-rule="evenodd">
        <g id="home" transform="translate(-616.000000, -6814.000000)" fill="#7F7F7F">
            <g id="clients" transform="translate(0.000000, 6508.000000)">
                <g id="verizon" transform="translate(616.000000, 306.000000)">
                    <polygon id="Fill-1" points="125.225036 0 118.381693 15.3095743 115.795466 9.50062901 113 9.50062901 117.246261 19 119.506874 19 128 0"></polygon>
                    <path d="M51.1264214,8.09032954 L56.8075454,8.09032954 L56.8075454,3 L51.1264214,3 L51.1264214,8.09032954 Z M6.4409058,28.4136369 L12.3744694,28.4136369 L18.8153752,9.66497304 L13.134867,9.66497304 L9.51635981,21.7125225 L9.44370644,21.7125225 L5.82581499,9.66497304 L0,9.66497304 L6.4409058,28.4136369 Z M27.2819554,13.2168005 C29.2719189,13.2168005 30.6467915,14.7179149 30.8641359,16.915686 L23.3020286,16.915686 C23.7361017,14.6817735 24.9299566,13.2168005 27.2819554,13.2168005 L27.2819554,13.2168005 Z M27.5713375,24.8256681 C25.0746476,24.8256681 23.5550839,23.1768724 23.2657019,20.6513361 L36.6172975,20.6513361 C36.6530085,16.6221929 35.6038446,13.4 33.3965368,11.3860515 C31.8412621,9.92107849 29.7780296,9.11537448 27.1735911,9.11537448 C21.6014472,9.11537448 17.7298847,13.4 17.7298847,19.0025404 C17.7298847,24.6418454 21.4204295,28.9632355 27.5356265,28.9632355 C29.850683,28.9632355 31.6965711,28.340731 33.2155191,27.2782984 C34.8446785,26.143583 36.0022067,24.4954104 36.3272998,22.847861 L30.9004626,22.847861 C30.3574095,24.0922469 29.2355922,24.8256681 27.5713375,24.8256681 L27.5713375,24.8256681 Z M37.9558435,28.4136369 L43.6006408,28.4136369 L43.6006408,19.8082445 C43.6006408,15.890018 45.9156972,14.1683164 49.4621667,14.645009 L49.5705311,14.645009 L49.5705311,9.70111444 C49.281149,9.59206711 48.9554403,9.55467945 48.4130028,9.55467945 C46.205695,9.55467945 44.722458,10.5803475 43.455334,12.7774955 L43.346354,12.7774955 L43.346354,9.66497304 L37.9558435,9.66497304 L37.9558435,28.4136369 Z M51.1264214,28.4136369 L56.8075454,28.4136369 L56.8075454,9.66497304 L51.1264214,9.66497304 L51.1264214,28.4136369 Z M58.3640515,28.4136369 L74.2117213,28.4136369 L74.2117213,23.9096705 L65.2390303,23.9096705 L65.2390303,23.7993769 L73.8139749,14.059269 L73.8139749,9.66497304 L58.3640515,9.66497304 L58.3640515,14.1683164 L67.0479761,14.1683164 L67.0479761,14.2786099 L58.3640515,24.0922469 L58.3640515,28.4136369 Z M84.2348076,24.7882804 C81.5571,24.7882804 80.1459006,22.5182265 80.1459006,19.0754464 C80.1459006,15.5965249 81.5571,13.3626123 84.2348076,13.3626123 C86.9118995,13.3626123 88.3951365,15.5965249 88.3951365,19.0754464 C88.3951365,22.5182265 86.9118995,24.7882804 84.2348076,24.7882804 L84.2348076,24.7882804 Z M84.2705186,9.15213901 C78.3726659,9.15213901 74.4290657,13.4367645 74.4290657,19.0754464 C74.4290657,24.6792331 78.3726659,29 84.2705186,29 C90.1683712,29 94.1125871,24.6792331 94.1125871,19.0754464 C94.1125871,13.4367645 90.1683712,9.15213901 84.2705186,9.15213901 L84.2705186,9.15213901 Z M95.3433844,28.4136369 L100.987566,28.4136369 L100.987566,17.9774955 C100.987566,15.5965249 102.362439,13.9122109 104.388729,13.9122109 C106.342366,13.9122109 107.355203,15.304278 107.355203,17.2820851 L107.355203,28.4136369 L113,28.4136369 L113,16.1835111 C113,12.0446974 110.539637,9.11537448 106.559094,9.11537448 C104.026693,9.11537448 102.253459,10.2145716 100.914913,12.2278969 L100.806548,12.2278969 L100.806548,9.66497304 L95.3433844,9.66497304 L95.3433844,28.4136369 Z" id="Fill-2"></path>
                </g>
            </g>
        </g>
    </g>
</svg>